<svg width="242" height="85" viewBox="0 0 242 85" fill="none" xmlns="http://www.w3.org/2000/svg">
<path d="M118.19 16.5848C118.04 16.8248 117.88 17.0048 117.71 17.1248C117.55 17.2448 117.34 17.3048 117.08 17.3048C116.85 17.3048 116.6 17.2348 116.33 17.0948C116.07 16.9448 115.77 16.7798 115.43 16.5998C115.1 16.4198 114.72 16.2598 114.29 16.1198C113.86 15.9698 113.37 15.8948 112.82 15.8948C111.87 15.8948 111.16 16.0998 110.69 16.5098C110.23 16.9098 110 17.4548 110 18.1448C110 18.5848 110.14 18.9498 110.42 19.2398C110.7 19.5298 111.065 19.7798 111.515 19.9898C111.975 20.1998 112.495 20.3948 113.075 20.5748C113.665 20.7448 114.265 20.9398 114.875 21.1598C115.485 21.3698 116.08 21.6198 116.66 21.9098C117.25 22.1998 117.77 22.5698 118.22 23.0198C118.68 23.4698 119.05 24.0198 119.33 24.6698C119.61 25.3098 119.75 26.0848 119.75 26.9948C119.75 28.0048 119.575 28.9498 119.225 29.8298C118.875 30.7098 118.365 31.4798 117.695 32.1398C117.035 32.7898 116.215 33.3048 115.235 33.6848C114.265 34.0548 113.16 34.2398 111.92 34.2398C111.24 34.2398 110.545 34.1698 109.835 34.0298C109.135 33.8898 108.455 33.6948 107.795 33.4448C107.135 33.1848 106.515 32.8798 105.935 32.5298C105.355 32.1798 104.85 31.7898 104.42 31.3598L105.92 28.9898C106.04 28.8198 106.195 28.6798 106.385 28.5698C106.585 28.4498 106.8 28.3898 107.03 28.3898C107.33 28.3898 107.63 28.4848 107.93 28.6748C108.24 28.8648 108.585 29.0748 108.965 29.3048C109.355 29.5348 109.8 29.7448 110.3 29.9348C110.8 30.1248 111.39 30.2198 112.07 30.2198C112.99 30.2198 113.705 30.0198 114.215 29.6198C114.725 29.2098 114.98 28.5648 114.98 27.6848C114.98 27.1748 114.84 26.7598 114.56 26.4398C114.28 26.1198 113.91 25.8548 113.45 25.6448C113 25.4348 112.485 25.2498 111.905 25.0898C111.325 24.9298 110.73 24.7548 110.12 24.5648C109.51 24.3648 108.915 24.1248 108.335 23.8448C107.755 23.5548 107.235 23.1798 106.775 22.7198C106.325 22.2498 105.96 21.6698 105.68 20.9798C105.4 20.2798 105.26 19.4198 105.26 18.3998C105.26 17.5798 105.425 16.7798 105.755 15.9998C106.085 15.2198 106.57 14.5248 107.21 13.9148C107.85 13.3048 108.635 12.8198 109.565 12.4598C110.495 12.0898 111.56 11.9048 112.76 11.9048C113.43 11.9048 114.08 11.9598 114.71 12.0698C115.35 12.1698 115.955 12.3248 116.525 12.5348C117.095 12.7348 117.625 12.9798 118.115 13.2698C118.615 13.5498 119.06 13.8698 119.45 14.2298L118.19 16.5848Z" fill="#E7427A"/>
<path d="M128.578 34.2398C127.838 34.2398 127.183 34.1348 126.613 33.9248C126.053 33.7048 125.578 33.3998 125.188 33.0098C124.808 32.6098 124.518 32.1298 124.318 31.5698C124.118 31.0098 124.018 30.3848 124.018 29.6948V21.6548H122.698C122.458 21.6548 122.253 21.5798 122.083 21.4298C121.913 21.2698 121.828 21.0398 121.828 20.7398V18.9248L124.303 18.4448L125.218 14.6498C125.338 14.1698 125.678 13.9298 126.238 13.9298H128.668V18.4748H132.523V21.6548H128.668V29.3798C128.668 29.7398 128.753 30.0398 128.923 30.2798C129.103 30.5098 129.358 30.6248 129.688 30.6248C129.858 30.6248 129.998 30.6098 130.108 30.5798C130.228 30.5398 130.328 30.4998 130.408 30.4598C130.498 30.4098 130.578 30.3698 130.648 30.3398C130.728 30.2998 130.818 30.2798 130.918 30.2798C131.058 30.2798 131.168 30.3148 131.248 30.3848C131.338 30.4448 131.428 30.5448 131.518 30.6848L132.928 32.8898C132.328 33.3398 131.653 33.6798 130.903 33.9098C130.153 34.1298 129.378 34.2398 128.578 34.2398Z" fill="#E7427A"/>
<path d="M145.555 24.3548C145.555 23.9848 145.505 23.6248 145.405 23.2748C145.315 22.9248 145.16 22.6148 144.94 22.3448C144.73 22.0648 144.45 21.8398 144.1 21.6698C143.75 21.4998 143.325 21.4148 142.825 21.4148C141.945 21.4148 141.255 21.6698 140.755 22.1798C140.255 22.6798 139.925 23.4048 139.765 24.3548H145.555ZM139.705 27.0548C139.855 28.3548 140.25 29.2998 140.89 29.8898C141.53 30.4698 142.355 30.7598 143.365 30.7598C143.905 30.7598 144.37 30.6948 144.76 30.5648C145.15 30.4348 145.495 30.2898 145.795 30.1298C146.105 29.9698 146.385 29.8248 146.635 29.6948C146.895 29.5648 147.165 29.4998 147.445 29.4998C147.815 29.4998 148.095 29.6348 148.285 29.9048L149.635 31.5698C149.155 32.1198 148.635 32.5698 148.075 32.9198C147.525 33.2598 146.955 33.5298 146.365 33.7298C145.785 33.9198 145.2 34.0498 144.61 34.1198C144.03 34.1998 143.475 34.2398 142.945 34.2398C141.855 34.2398 140.83 34.0648 139.87 33.7148C138.92 33.3548 138.085 32.8248 137.365 32.1248C136.655 31.4248 136.09 30.5548 135.67 29.5148C135.26 28.4748 135.055 27.2648 135.055 25.8848C135.055 24.8448 135.23 23.8598 135.58 22.9298C135.94 21.9998 136.45 21.1848 137.11 20.4848C137.78 19.7848 138.585 19.2298 139.525 18.8198C140.475 18.4098 141.545 18.2048 142.735 18.2048C143.765 18.2048 144.705 18.3648 145.555 18.6848C146.415 19.0048 147.15 19.4698 147.76 20.0798C148.38 20.6898 148.86 21.4398 149.2 22.3298C149.55 23.2098 149.725 24.2098 149.725 25.3298C149.725 25.6798 149.71 25.9648 149.68 26.1848C149.65 26.4048 149.595 26.5798 149.515 26.7098C149.435 26.8398 149.325 26.9298 149.185 26.9798C149.055 27.0298 148.885 27.0548 148.675 27.0548H139.705Z" fill="#E7427A"/>
<path d="M158.202 29.7698C158.552 30.1498 158.932 30.4198 159.342 30.5798C159.752 30.7398 160.182 30.8198 160.632 30.8198C161.062 30.8198 161.457 30.7348 161.817 30.5648C162.177 30.3948 162.487 30.1248 162.747 29.7548C163.017 29.3748 163.227 28.8848 163.377 28.2848C163.527 27.6848 163.602 26.9548 163.602 26.0948C163.602 25.2748 163.542 24.5848 163.422 24.0248C163.302 23.4648 163.132 23.0148 162.912 22.6748C162.702 22.3248 162.447 22.0748 162.147 21.9248C161.847 21.7748 161.512 21.6998 161.142 21.6998C160.462 21.6998 159.902 21.8248 159.462 22.0748C159.022 22.3248 158.602 22.6898 158.202 23.1698V29.7698ZM157.917 20.3648C158.527 19.7148 159.217 19.1848 159.987 18.7748C160.767 18.3548 161.692 18.1448 162.762 18.1448C163.572 18.1448 164.322 18.3248 165.012 18.6848C165.702 19.0448 166.297 19.5648 166.797 20.2448C167.297 20.9248 167.687 21.7598 167.967 22.7498C168.257 23.7298 168.402 24.8448 168.402 26.0948C168.402 27.2648 168.237 28.3448 167.907 29.3348C167.587 30.3248 167.132 31.1848 166.542 31.9148C165.962 32.6448 165.262 33.2148 164.442 33.6248C163.632 34.0348 162.732 34.2398 161.742 34.2398C160.932 34.2398 160.252 34.1248 159.702 33.8948C159.152 33.6648 158.652 33.3548 158.202 32.9648V38.9348H153.552V18.4448H156.432C157.012 18.4448 157.392 18.7048 157.572 19.2248L157.917 20.3648Z" fill="#E7427A"/>
<path d="M180.332 27.6698C179.402 27.7098 178.637 27.7898 178.037 27.9098C177.437 28.0298 176.962 28.1798 176.612 28.3598C176.262 28.5398 176.017 28.7448 175.877 28.9748C175.747 29.2048 175.682 29.4548 175.682 29.7248C175.682 30.2548 175.827 30.6298 176.117 30.8498C176.407 31.0598 176.832 31.1648 177.392 31.1648C177.992 31.1648 178.517 31.0598 178.967 30.8498C179.417 30.6398 179.872 30.2998 180.332 29.8298V27.6698ZM171.962 20.6048C172.902 19.7748 173.942 19.1598 175.082 18.7598C176.232 18.3498 177.462 18.1448 178.772 18.1448C179.712 18.1448 180.557 18.2998 181.307 18.6098C182.067 18.9098 182.707 19.3348 183.227 19.8848C183.757 20.4248 184.162 21.0698 184.442 21.8198C184.722 22.5698 184.862 23.3898 184.862 24.2798V33.9998H182.732C182.292 33.9998 181.957 33.9398 181.727 33.8198C181.507 33.6998 181.322 33.4498 181.172 33.0698L180.842 32.2148C180.452 32.5448 180.077 32.8348 179.717 33.0848C179.357 33.3348 178.982 33.5498 178.592 33.7298C178.212 33.8998 177.802 34.0248 177.362 34.1048C176.932 34.1948 176.452 34.2398 175.922 34.2398C175.212 34.2398 174.567 34.1498 173.987 33.9698C173.407 33.7798 172.912 33.5048 172.502 33.1448C172.102 32.7848 171.792 32.3398 171.572 31.8098C171.352 31.2698 171.242 30.6498 171.242 29.9498C171.242 29.3898 171.382 28.8248 171.662 28.2548C171.942 27.6748 172.427 27.1498 173.117 26.6798C173.807 26.1998 174.737 25.7998 175.907 25.4798C177.077 25.1598 178.552 24.9798 180.332 24.9398V24.2798C180.332 23.3698 180.142 22.7148 179.762 22.3148C179.392 21.9048 178.862 21.6998 178.172 21.6998C177.622 21.6998 177.172 21.7598 176.822 21.8798C176.472 21.9998 176.157 22.1348 175.877 22.2848C175.607 22.4348 175.342 22.5698 175.082 22.6898C174.822 22.8098 174.512 22.8698 174.152 22.8698C173.832 22.8698 173.562 22.7898 173.342 22.6298C173.122 22.4698 172.942 22.2798 172.802 22.0598L171.962 20.6048Z" fill="#E7427A"/>
<path d="M193.625 20.1248C193.925 19.8448 194.235 19.5848 194.555 19.3448C194.875 19.1048 195.215 18.9048 195.575 18.7448C195.945 18.5748 196.34 18.4448 196.76 18.3548C197.19 18.2548 197.655 18.2048 198.155 18.2048C199.005 18.2048 199.755 18.3548 200.405 18.6548C201.065 18.9448 201.62 19.3548 202.07 19.8848C202.52 20.4048 202.86 21.0298 203.09 21.7598C203.32 22.4798 203.435 23.2648 203.435 24.1148V33.9998H198.785V24.1148C198.785 23.3548 198.61 22.7648 198.26 22.3448C197.91 21.9148 197.395 21.6998 196.715 21.6998C196.205 21.6998 195.725 21.8098 195.275 22.0298C194.835 22.2398 194.405 22.5298 193.985 22.8998V33.9998H189.335V18.4448H192.215C192.795 18.4448 193.175 18.7048 193.355 19.2248L193.625 20.1248Z" fill="#E7427A"/>
<path d="M215.114 18.2048C216.294 18.2048 217.369 18.3898 218.339 18.7598C219.309 19.1298 220.139 19.6598 220.829 20.3498C221.529 21.0398 222.069 21.8798 222.449 22.8698C222.839 23.8498 223.034 24.9548 223.034 26.1848C223.034 27.4248 222.839 28.5448 222.449 29.5448C222.069 30.5348 221.529 31.3798 220.829 32.0798C220.139 32.7698 219.309 33.3048 218.339 33.6848C217.369 34.0548 216.294 34.2398 215.114 34.2398C213.924 34.2398 212.839 34.0548 211.859 33.6848C210.889 33.3048 210.049 32.7698 209.339 32.0798C208.639 31.3798 208.094 30.5348 207.704 29.5448C207.324 28.5448 207.134 27.4248 207.134 26.1848C207.134 24.9548 207.324 23.8498 207.704 22.8698C208.094 21.8798 208.639 21.0398 209.339 20.3498C210.049 19.6598 210.889 19.1298 211.859 18.7598C212.839 18.3898 213.924 18.2048 215.114 18.2048ZM215.114 30.7898C216.184 30.7898 216.969 30.4148 217.469 29.6648C217.979 28.9048 218.234 27.7548 218.234 26.2148C218.234 24.6748 217.979 23.5298 217.469 22.7798C216.969 22.0298 216.184 21.6548 215.114 21.6548C214.014 21.6548 213.209 22.0298 212.699 22.7798C212.189 23.5298 211.934 24.6748 211.934 26.2148C211.934 27.7548 212.189 28.9048 212.699 29.6648C213.209 30.4148 214.014 30.7898 215.114 30.7898Z" fill="#E7427A"/>
<path d="M241.003 18.4448L234.973 33.9998H230.743L224.713 18.4448H228.583C228.913 18.4448 229.188 18.5248 229.408 18.6848C229.638 18.8348 229.793 19.0248 229.873 19.2548L232.033 26.2298C232.223 26.7998 232.388 27.3548 232.528 27.8948C232.678 28.4348 232.808 28.9748 232.918 29.5148C233.138 28.4348 233.443 27.3398 233.833 26.2298L236.083 19.2548C236.163 19.0248 236.313 18.8348 236.533 18.6848C236.753 18.5248 237.013 18.4448 237.313 18.4448H241.003Z" fill="#E7427A"/>
<path d="M130.685 49.1448V70.9998H126.215V58.4298C126.215 58.1398 126.22 57.8248 126.23 57.4848C126.25 57.1448 126.28 56.7998 126.32 56.4498L120.515 67.6848C120.335 68.0348 120.09 68.2998 119.78 68.4798C119.48 68.6598 119.135 68.7498 118.745 68.7498H118.055C117.665 68.7498 117.315 68.6598 117.005 68.4798C116.705 68.2998 116.465 68.0348 116.285 67.6848L110.48 56.4198C110.51 56.7798 110.535 57.1348 110.555 57.4848C110.575 57.8248 110.585 58.1398 110.585 58.4298V70.9998H106.115V49.1448H109.985C110.205 49.1448 110.395 49.1498 110.555 49.1598C110.725 49.1698 110.875 49.1998 111.005 49.2498C111.135 49.2998 111.25 49.3798 111.35 49.4898C111.46 49.5898 111.565 49.7348 111.665 49.9248L117.29 61.0098C117.49 61.3898 117.68 61.7848 117.86 62.1948C118.05 62.6048 118.23 63.0248 118.4 63.4548C118.57 63.0148 118.745 62.5848 118.925 62.1648C119.115 61.7448 119.315 61.3448 119.525 60.9648L125.135 49.9248C125.235 49.7348 125.335 49.5898 125.435 49.4898C125.545 49.3798 125.665 49.2998 125.795 49.2498C125.925 49.1998 126.07 49.1698 126.23 49.1598C126.4 49.1498 126.595 49.1448 126.815 49.1448H130.685Z" fill="#E7427A"/>
<path d="M143.577 64.6698C142.647 64.7098 141.882 64.7898 141.282 64.9098C140.682 65.0298 140.207 65.1798 139.857 65.3598C139.507 65.5398 139.262 65.7448 139.122 65.9748C138.992 66.2048 138.927 66.4548 138.927 66.7248C138.927 67.2548 139.072 67.6298 139.362 67.8498C139.652 68.0598 140.077 68.1648 140.637 68.1648C141.237 68.1648 141.762 68.0598 142.212 67.8498C142.662 67.6398 143.117 67.2998 143.577 66.8298V64.6698ZM135.207 57.6048C136.147 56.7748 137.187 56.1598 138.327 55.7598C139.477 55.3498 140.707 55.1448 142.017 55.1448C142.957 55.1448 143.802 55.2998 144.552 55.6098C145.312 55.9098 145.952 56.3348 146.472 56.8848C147.002 57.4248 147.407 58.0698 147.687 58.8198C147.967 59.5698 148.107 60.3898 148.107 61.2798V70.9998H145.977C145.537 70.9998 145.202 70.9398 144.972 70.8198C144.752 70.6998 144.567 70.4498 144.417 70.0698L144.087 69.2148C143.697 69.5448 143.322 69.8348 142.962 70.0848C142.602 70.3348 142.227 70.5498 141.837 70.7298C141.457 70.8998 141.047 71.0248 140.607 71.1048C140.177 71.1948 139.697 71.2398 139.167 71.2398C138.457 71.2398 137.812 71.1498 137.232 70.9698C136.652 70.7798 136.157 70.5048 135.747 70.1448C135.347 69.7848 135.037 69.3398 134.817 68.8098C134.597 68.2698 134.487 67.6498 134.487 66.9498C134.487 66.3898 134.627 65.8248 134.907 65.2548C135.187 64.6748 135.672 64.1498 136.362 63.6798C137.052 63.1998 137.982 62.7998 139.152 62.4798C140.322 62.1598 141.797 61.9798 143.577 61.9398V61.2798C143.577 60.3698 143.387 59.7148 143.007 59.3148C142.637 58.9048 142.107 58.6998 141.417 58.6998C140.867 58.6998 140.417 58.7598 140.067 58.8798C139.717 58.9998 139.402 59.1348 139.122 59.2848C138.852 59.4348 138.587 59.5698 138.327 59.6898C138.067 59.8098 137.757 59.8698 137.397 59.8698C137.077 59.8698 136.807 59.7898 136.587 59.6298C136.367 59.4698 136.187 59.2798 136.047 59.0598L135.207 57.6048Z" fill="#E7427A"/>
<path d="M167.459 70.9998H162.989C162.659 70.9998 162.389 70.9198 162.179 70.7598C161.979 70.5998 161.819 70.4098 161.699 70.1898L158.924 65.4198C158.874 65.5898 158.814 65.7498 158.744 65.8998C158.674 66.0498 158.599 66.1898 158.519 66.3198L156.239 70.1898C156.099 70.3898 155.934 70.5748 155.744 70.7448C155.554 70.9148 155.309 70.9998 155.009 70.9998H150.869L156.089 62.9598L151.079 55.4448H155.549C155.879 55.4448 156.119 55.4898 156.269 55.5798C156.429 55.6598 156.569 55.7998 156.689 55.9998L159.464 60.6048C159.524 60.4248 159.599 60.2498 159.689 60.0798C159.779 59.8998 159.879 59.7198 159.989 59.5398L161.969 56.0748C162.109 55.8548 162.254 55.6948 162.404 55.5948C162.564 55.4948 162.759 55.4448 162.989 55.4448H167.249L162.239 62.7498L167.459 70.9998Z" fill="#E7427A"/>
<rect width="84" height="85" rx="10" fill="#E7427A"/>
<path d="M14.4941 61.8574L21.291 61.7988L21.877 22.5703L14.3184 22.4531V21.3691L29.9922 21.5449L43.8496 48.5273L53.5469 21.6621L70.6562 21.8379V22.9219L64.5918 22.8633C64.5723 23.0391 64.543 23.4102 64.5039 23.9766C64.4844 24.5234 64.4453 25.3828 64.3867 26.5547C64.3477 27.7266 64.2988 29.2598 64.2402 31.1543C64.1816 33.0488 64.1133 35.4219 64.0352 38.2734C63.957 41.1055 63.8789 44.4746 63.8008 48.3809C63.7227 52.2871 63.6445 56.8379 63.5664 62.0332H70.7734V63.1172H45.6953V62.0332H52.6094L53.3125 25.3828L39.3965 63.7324L22.7852 31.7988L22.3457 61.7988L28.8496 61.7402V62.8242L14.4941 62.9414V61.8574Z" stroke="white" fill="white"/>
</svg>
